<?xml version="1.0" standalone="no"?>
<!DOCTYPE svg PUBLIC "-//W3C//DTD SVG 20010904//EN"
 "http://www.w3.org/TR/2001/REC-SVG-20010904/DTD/svg10.dtd">
<svg version="1.0" xmlns="http://www.w3.org/2000/svg"
 width="337.000000pt" height="337.000000pt" viewBox="0 0 337.000000 337.000000"
 preserveAspectRatio="xMidYMid meet">
<metadata>
Created by potrace 1.14, written by Peter Selinger 2001-2017
</metadata>
<g transform="translate(0.000000,337.000000) scale(0.100000,-0.100000)"
fill="#000000" stroke="none">
<path d="M13 2733 c9 -2 23 -2 30 0 6 3 -1 5 -18 5 -17 0 -22 -2 -12 -5z"/>
<path d="M80 2649 c-37 -7 -38 -10 -5 -14 11 -2 32 -6 48 -10 15 -4 27 -3 27
2 0 17 -36 29 -70 22z"/>
<path d="M200 2648 c1 -42 11 -54 45 -50 62 7 52 62 -11 62 -21 0 -34 -5 -34
-12z"/>
<path d="M338 2653 c6 -2 12 -11 12 -18 0 -14 57 -32 67 -21 4 3 -1 6 -10 6
-9 0 -16 3 -16 8 4 24 -4 32 -33 31 -18 0 -27 -3 -20 -6z"/>
<path d="M591 2650 c0 -8 4 -24 9 -35 5 -13 9 -14 9 -5 0 8 -4 24 -9 35 -5 13
-9 14 -9 5z"/>
<path d="M2605 2253 c-101 -12 -208 -75 -295 -174 -30 -34 -59 -67 -65 -73
-36 -40 -65 -88 -65 -108 0 -13 -6 -32 -14 -43 -7 -11 -14 -44 -15 -74 0 -30
-3 -56 -5 -59 -3 -2 -83 3 -178 12 -511 49 -606 58 -873 81 -99 9 -190 20
-203 25 -31 13 -30 7 28 -219 34 -135 47 -199 40 -211 -6 -11 -125 -56 -352
-133 -395 -133 -415 -140 -430 -155 -6 -6 -17 -8 -24 -5 -8 3 -21 -1 -30 -8
-9 -7 -26 -14 -37 -16 -83 -11 -87 -13 -87 -44 0 -26 2 -28 19 -19 11 5 22 15
24 22 4 10 8 9 16 -2 6 -8 16 -15 23 -16 7 0 20 -3 28 -7 45 -17 86 -27 107
-27 14 0 21 -4 18 -10 -10 -15 25 -12 41 4 21 22 17 26 -26 26 -23 0 -40 5
-40 11 0 7 -9 9 -22 6 -20 -5 -21 -4 -7 6 8 7 22 27 30 45 15 34 32 44 27 15
-2 -12 4 -19 19 -21 29 -4 30 -22 2 -22 -33 0 -16 -22 20 -26 28 -4 32 -2 26
16 -5 16 -2 20 19 20 14 0 27 4 31 9 3 5 19 12 35 16 35 8 39 22 7 27 -39 5
-14 23 36 24 48 1 59 -10 35 -34 -9 -9 -7 -12 13 -12 13 0 30 -4 37 -9 18 -11
-7 -21 -55 -21 -29 0 -33 2 -24 14 8 10 9 16 1 21 -18 11 -25 -27 -7 -40 22
-16 21 -25 0 -25 -10 -1 -3 -7 16 -15 39 -18 44 -18 36 -5 -8 13 31 13 56 0
23 -13 25 -30 3 -30 -9 0 -12 5 -8 13 6 9 4 9 -7 1 -15 -11 -69 -12 -87 0 -7
4 -21 5 -31 1 -13 -4 -21 0 -24 12 -4 17 -5 17 -6 1 -1 -13 -10 -18 -31 -18
-21 0 -30 -5 -30 -16 0 -12 -6 -15 -25 -10 -14 4 -25 2 -25 -4 0 -6 -23 -10
-52 -9 -29 0 -47 3 -40 6 9 3 4 10 -14 19 -15 8 -29 12 -32 9 -3 -3 0 -5 6 -5
9 0 9 -5 0 -20 -15 -24 -33 -27 -24 -4 3 8 2 13 -3 10 -5 -3 -14 1 -21 9 -7 8
-17 15 -22 15 -6 0 -5 -7 2 -15 11 -13 8 -15 -14 -15 -14 0 -26 5 -26 10 0 6
-8 10 -17 10 -15 0 -16 -2 -3 -10 10 -7 11 -10 2 -10 -10 0 -12 -86 -12 -410
0 -226 3 -410 6 -410 3 0 14 4 24 10 23 12 59 2 38 -11 -7 -5 -25 -9 -40 -9
-24 0 -28 -4 -28 -30 0 -24 3 -28 18 -23 14 6 15 4 4 -9 -7 -9 -14 -30 -17
-47 l-4 -31 25 19 c15 12 32 17 42 13 16 -6 16 -7 0 -10 -39 -8 -15 -22 38
-22 52 0 54 1 39 17 -16 16 -16 17 1 30 23 17 30 16 54 -4 20 -17 20 -17 -3
-29 -19 -11 -12 -13 52 -13 52 0 78 4 88 15 13 13 10 14 -25 8 -43 -7 -71 12
-30 20 53 11 117 13 127 3 12 -12 -9 -36 -26 -30 -7 3 -13 0 -13 -6 0 -14 338
-13 346 1 3 4 12 8 20 8 10 0 12 -5 8 -12 -5 -8 0 -7 11 2 14 11 19 12 22 3 4
-10 10 -10 24 -2 11 5 39 13 63 15 34 5 45 2 49 -10 9 -23 40 -20 102 10 72
33 151 32 149 -3 -1 -16 4 -23 17 -23 21 0 24 11 8 27 -7 7 2 10 33 8 24 -2
33 -1 20 1 -24 6 -29 20 -9 27 9 4 9 7 -1 18 -9 10 -12 10 -12 0 0 -8 -13 -12
-40 -10 -21 2 -42 0 -45 -3 -4 -3 -22 -4 -40 -2 -19 2 -37 0 -40 -6 -9 -15
-25 -12 -19 4 3 9 -1 13 -12 13 -9 -1 -19 4 -22 12 -4 11 14 12 102 6 73 -4
106 -3 106 4 0 6 0 14 0 19 1 4 -15 10 -35 13 -19 3 -35 2 -35 -2 0 -14 -78
-21 -101 -9 l-22 13 24 13 c13 7 35 13 49 14 16 0 29 8 35 22 8 18 20 24 53
26 27 2 42 8 42 17 0 7 6 16 13 19 6 4 2 4 -11 2 -15 -3 -22 0 -19 7 2 7 20
13 40 15 38 3 43 22 6 22 -10 0 -19 4 -19 8 0 11 39 12 45 1 4 -5 14 -9 23 -8
11 0 12 3 5 6 -31 12 -9 24 40 21 38 -2 52 -7 52 -18 0 -8 4 -20 8 -27 4 -6 1
-14 -5 -16 -9 -4 -10 -8 -2 -14 6 -4 14 -17 18 -28 5 -13 10 -15 13 -7 3 6 9
12 15 12 6 0 8 -6 5 -14 -3 -8 2 -16 14 -19 20 -5 26 7 9 18 -6 3 -10 24 -10
46 0 23 4 38 10 34 5 -3 33 -3 61 1 38 5 47 9 35 16 -9 5 -25 6 -36 3 -11 -3
-29 0 -40 8 -20 14 -20 15 -3 22 17 7 17 8 -2 15 -11 5 -14 9 -7 9 26 2 10 21
-18 21 -32 0 -40 -14 -15 -24 30 -11 16 -28 -17 -22 -18 4 -43 8 -55 10 -35 4
-39 14 -10 25 14 5 27 15 29 21 2 6 20 12 42 13 41 3 70 32 42 43 -23 9 -4 38
34 54 16 7 30 18 30 24 0 16 37 46 55 46 8 0 15 -5 15 -11 0 -8 5 -7 16 2 14
12 14 14 -5 21 -12 4 -21 11 -21 16 0 17 29 34 46 28 11 -4 15 -2 11 8 -3 8 1
17 9 20 8 3 13 10 12 17 -2 6 17 19 42 30 25 11 35 18 23 15 -13 -2 -25 -1
-28 4 -8 13 21 31 39 24 9 -3 16 -1 16 5 0 6 -7 11 -15 11 -18 0 -19 12 -3 28
9 9 9 12 -2 13 -10 0 -7 4 5 9 17 7 17 9 3 9 -18 1 -35 26 -48 72 -7 23 -5 29
6 29 8 0 12 5 9 10 -3 6 3 10 14 10 12 0 21 -4 21 -10 0 -5 12 -10 28 -10 51
0 104 -12 91 -21 -24 -14 -2 -21 46 -14 42 7 45 9 30 24 -8 10 -15 23 -15 30
0 20 34 8 45 -17 12 -27 39 -28 97 -5 52 19 75 38 37 29 -23 -5 -28 -1 -45 36
-14 30 -15 43 -6 46 6 2 -16 18 -51 35 -34 17 -64 32 -66 34 -2 1 2 23 9 48
l13 45 123 0 c68 0 124 -2 124 -4 0 -2 -11 -27 -25 -54 -14 -28 -25 -55 -25
-61 0 -6 -17 -11 -37 -12 l-38 -1 32 -10 c32 -10 33 -12 26 -51 -5 -35 -4 -39
10 -34 23 9 22 -21 0 -52 -10 -15 -11 -21 -3 -16 10 6 12 1 6 -26 -8 -40 -26
-63 -26 -32 0 17 -17 33 -35 33 -2 0 -15 -12 -29 -27 l-25 -26 -63 21 c-71 24
-105 26 -162 9 l-38 -12 96 -34 c86 -30 114 -51 68 -51 -14 0 -14 -2 2 -13 15
-11 25 -10 64 10 26 12 67 26 91 29 l44 7 -7 -29 c-4 -16 -10 -45 -12 -64 -9
-67 -14 -77 -41 -89 l-28 -13 28 -20 c40 -29 34 -44 -19 -52 -80 -11 -93 -8
-130 29 -40 40 -42 40 -80 20 l-29 -16 30 3 c25 2 31 -1 33 -20 2 -12 -1 -22
-7 -22 -18 0 0 -29 22 -36 12 -4 35 -17 50 -30 16 -13 34 -24 40 -24 7 0 4 5
-5 11 -10 5 -15 16 -12 24 4 8 1 15 -7 15 -7 0 -9 3 -6 6 12 12 87 16 87 5 0
-6 -7 -11 -15 -11 -22 0 -18 -18 6 -25 23 -8 20 -31 -5 -29 -9 1 -16 -6 -16
-16 0 -10 -9 -22 -20 -25 -11 -4 -18 -11 -15 -16 4 -5 1 -9 -4 -9 -6 0 -11 -4
-11 -10 0 -5 7 -10 15 -10 17 0 20 -16 6 -25 -6 -3 -18 3 -28 13 -26 27 -51
34 -49 14 0 -9 8 -23 16 -30 13 -10 10 -12 -15 -10 -18 2 -29 8 -27 16 2 10
-2 10 -20 1 -16 -9 -23 -9 -26 0 -2 6 -14 11 -27 11 -29 0 -43 19 -24 31 12 7
12 9 0 9 -16 0 -40 29 -41 47 0 7 7 10 17 6 10 -4 14 -2 9 5 -3 6 -14 10 -24
10 -9 0 -25 3 -34 7 -11 4 -18 3 -18 -4 0 -6 9 -11 20 -11 31 0 24 -20 -7 -21
-16 -1 -34 -1 -40 0 -36 5 13 -37 52 -44 6 -1 14 -3 18 -3 13 -3 -20 -32 -35
-32 -7 0 -19 -9 -26 -20 -7 -11 -19 -20 -26 -20 -20 0 -31 21 -17 30 8 5 4 12
-13 23 -30 20 -43 21 -49 5 -4 -10 -6 -10 -6 0 -1 6 -11 12 -23 11 -14 0 -17
-3 -9 -6 22 -9 48 -38 44 -50 -2 -6 9 -14 26 -18 35 -7 54 -27 49 -52 -1 -10
1 -24 5 -30 6 -10 -1 -13 -25 -14 l-33 -1 33 -9 c50 -15 29 -32 -30 -25 -35 5
-48 4 -43 -4 5 -8 -4 -9 -32 -4 l-38 7 25 -21 c18 -14 29 -17 37 -10 7 6 20 7
29 4 14 -6 41 0 104 22 8 3 17 6 20 6 3 1 14 8 26 16 27 20 36 46 20 59 -14
12 -58 3 -50 -10 3 -5 -2 -9 -10 -9 -10 0 -13 6 -10 15 4 8 1 15 -6 15 -10 0
-6 35 5 48 8 9 45 -11 45 -23 0 -7 6 -13 13 -12 57 2 77 -4 77 -22 0 -23 16
-37 22 -19 3 8 7 8 11 2 3 -6 -16 -25 -44 -42 -27 -18 -49 -38 -49 -44 0 -6
-7 -5 -17 3 -11 10 -14 10 -9 2 4 -7 3 -13 -2 -13 -6 0 -13 -11 -16 -25 -4
-15 -11 -22 -20 -19 -8 3 -17 1 -20 -5 -5 -7 -13 -7 -25 1 -13 8 -27 8 -47 1
-31 -11 -74 -1 -74 17 0 5 -13 10 -30 10 -20 0 -30 5 -30 15 0 8 5 15 11 15 6
0 8 8 4 19 -6 21 15 30 80 32 l40 2 -40 6 c-22 4 -48 3 -59 -2 -10 -5 -29 -7
-42 -4 -19 3 -23 0 -21 -17 2 -19 -3 -21 -50 -21 -28 0 -55 -4 -59 -8 -4 -4 7
-7 24 -7 17 0 34 -5 37 -11 12 -19 -4 -22 -46 -10 -46 14 -99 6 -99 -15 0 -19
19 -18 26 1 4 8 15 15 25 15 12 0 16 -5 13 -15 -4 -8 -10 -13 -14 -10 -15 9
-20 -12 -7 -23 15 -13 57 -12 57 2 0 5 -8 15 -17 23 -17 14 -17 14 2 6 11 -4
51 -7 88 -6 46 2 79 -3 99 -13 36 -19 32 -38 -10 -42 -18 -2 -30 -7 -27 -12 3
-5 116 -9 251 -10 201 0 248 2 260 14 18 18 18 27 0 20 -15 -6 -30 22 -20 38
4 7 10 4 16 -6 5 -9 14 -16 20 -16 9 0 9 3 0 12 -7 7 -12 21 -12 31 0 16 -2
17 -15 7 -21 -17 -24 -10 -9 18 7 15 14 20 18 13 12 -19 36 -13 29 7 -7 16 -6
16 10 0 15 -14 22 -15 43 -6 28 13 44 0 44 -34 0 -17 10 -22 38 -19 6 1 12 -6
12 -15 0 -10 5 -14 15 -10 9 3 19 -3 26 -16 10 -18 9 -20 -8 -16 -10 3 -24 -1
-31 -9 -11 -11 50 -13 373 -13 360 0 385 1 385 18 1 15 2 15 15 -2 13 -17 15
-18 15 -3 0 21 16 22 24 2 4 -13 35 -15 191 -15 l185 0 0 71 c0 64 -1 69 -16
55 -8 -9 -21 -16 -27 -16 -7 0 -22 -3 -35 -6 -22 -6 -22 -6 -5 24 10 17 28 34
40 37 12 3 27 14 33 26 10 18 9 19 -9 8 -15 -10 -23 -10 -35 0 -12 10 -19 11
-29 2 -11 -9 -14 -5 -15 19 0 17 4 30 9 30 5 0 6 12 3 27 -6 22 -4 25 10 20 9
-4 16 -1 17 6 0 7 2 31 4 55 4 45 -1 51 -19 27 -9 -12 -15 -4 -32 40 l-21 54
23 -17 c13 -9 24 -23 24 -30 0 -7 5 -10 10 -7 6 4 24 0 40 -9 l30 -14 0 52 0
53 -30 -5 c-18 -3 -30 0 -30 7 0 6 -7 11 -16 11 -13 0 -15 6 -9 27 7 30 31 52
57 53 12 0 19 12 24 45 5 37 2 54 -20 98 -14 28 -38 66 -53 83 -84 95 -104
121 -109 146 -4 14 -19 41 -34 59 l-27 34 20 42 c16 33 18 48 11 74 -9 33 -5
101 20 314 20 171 2 293 -65 427 -16 32 -29 64 -29 73 0 9 -7 18 -15 21 -8 4
-15 14 -15 23 0 10 -8 25 -17 34 -57 53 -73 66 -128 106 -88 65 -182 88 -300
74z m-217 -358 c-3 -3 -9 2 -12 12 -6 14 -5 15 5 6 7 -7 10 -15 7 -18z m95
-14 c9 -9 8 -14 -3 -21 -8 -5 -10 -10 -4 -10 5 0 16 6 23 13 11 10 13 8 8 -10
-4 -17 1 -24 22 -31 28 -10 107 -2 130 13 9 5 12 4 7 -3 -4 -6 -8 -30 -11 -54
l-4 -43 19 25 c13 17 20 20 20 10 0 -10 7 -7 20 10 l20 25 0 -54 c0 -45 2 -52
14 -42 8 7 17 25 21 40 3 16 17 39 31 51 29 28 30 25 4 -28 -25 -52 -25 -60 1
-31 20 23 20 23 14 2 -5 -17 4 -12 37 20 l43 42 6 -45 c3 -25 7 -35 7 -23 1
12 6 24 10 27 5 3 6 -9 4 -26 -4 -23 -1 -29 8 -23 15 9 32 -15 20 -30 -5 -6
-2 -46 7 -95 14 -83 13 -174 -3 -215 -7 -18 -5 -17 25 5 18 14 51 42 73 63 22
20 42 37 44 37 15 0 -1 -63 -26 -100 -16 -25 -30 -50 -30 -55 0 -17 -73 -83
-95 -87 -13 -2 -21 -12 -23 -31 -3 -27 -3 -27 37 -21 46 7 72 -7 64 -35 -7
-26 -106 -128 -110 -114 -3 7 -11 9 -19 6 -10 -4 -15 0 -14 8 4 28 0 40 -11
33 -7 -4 -20 4 -30 17 -10 13 -21 20 -26 16 -4 -5 -1 -12 6 -16 16 -10 5 -34
-12 -28 -7 2 -20 0 -29 -5 -12 -5 -18 -5 -18 1 0 6 -26 -5 -57 -23 -32 -18
-81 -41 -109 -50 -29 -9 -60 -26 -70 -37 -29 -32 -64 -47 -166 -69 -60 -14
-101 -29 -116 -43 l-24 -22 7 40 c4 22 12 45 17 52 6 7 14 29 20 50 30 114 27
164 -11 237 -24 44 -31 71 -31 112 0 53 -1 54 -29 54 -16 0 -34 6 -40 13 -6 8
-21 59 -34 114 -21 86 -22 105 -12 130 12 28 46 48 59 35 3 -3 6 -18 6 -34 0
-34 19 -119 30 -131 4 -4 12 29 18 74 16 113 86 229 137 229 13 0 27 5 30 10
3 6 16 10 28 9 l22 0 -22 -9 c-33 -13 -28 -20 15 -20 60 0 69 12 43 54 -13 21
-31 36 -42 36 -10 0 -19 4 -19 10 0 13 58 6 73 -9z m-1206 -603 c7 -5 17 -7
23 -3 5 3 10 -1 10 -9 0 -9 5 -16 10 -16 6 0 10 -8 10 -17 0 -12 3 -14 8 -7 5
9 11 8 20 -2 12 -13 8 -18 -11 -15 -4 1 -7 -4 -6 -11 5 -39 -6 -57 -56 -97
-62 -49 -98 -59 -200 -52 -38 2 -100 -11 -143 -30 -33 -15 -47 -17 -57 -9 -8
7 -19 9 -25 5 -6 -4 -18 -1 -26 6 -8 6 -18 9 -21 5 -4 -4 -1 -11 7 -16 12 -8
11 -10 -7 -10 -13 0 -24 8 -28 21 -6 18 -13 21 -45 16 -21 -3 -43 0 -48 5 -14
14 -32 1 -25 -17 6 -17 2 -18 -21 -9 -9 3 -16 13 -16 22 0 12 -3 13 -11 5 -8
-8 -20 -8 -35 -3 -13 5 -31 7 -39 4 -8 -4 -15 -1 -15 5 0 6 19 12 43 12 l42 2
-37 10 c-21 6 -38 15 -38 20 0 9 17 7 54 -9 16 -6 18 -4 13 10 -6 14 -2 17 21
15 15 -2 33 0 40 5 7 4 19 2 28 -5 8 -6 18 -9 22 -5 4 4 -1 12 -11 17 -26 15
-21 32 7 25 15 -4 28 0 35 8 10 11 8 15 -6 18 -12 2 -14 6 -6 11 6 4 18 1 26
-7 17 -17 79 -11 113 10 11 8 40 20 65 28 24 7 53 17 64 21 11 5 -4 -15 -32
-44 -29 -29 -53 -56 -53 -62 0 -17 70 -10 77 8 6 15 7 15 13 -3 6 -18 8 -17
19 4 7 14 8 22 1 22 -5 0 -10 13 -10 29 0 35 18 44 84 41 28 -1 46 2 42 8 -3
5 6 22 20 37 22 23 30 26 62 20 20 -4 42 -11 49 -17z m1803 12 c0 -5 -7 -7
-15 -4 -8 4 -15 8 -15 10 0 2 7 4 15 4 8 0 15 -4 15 -10z m-2407 -104 c34 -16
16 -27 -38 -24 -30 2 -55 7 -54 12 0 5 -4 12 -9 15 -15 9 80 6 101 -3z m-163
-16 c-20 -13 -40 -13 -40 0 0 6 12 10 28 10 21 0 24 -2 12 -10z m43 -17 c-7
-2 -19 -2 -25 0 -7 3 -2 5 12 5 14 0 19 -2 13 -5z m2558 -46 c-8 -8 -11 -5
-11 9 0 27 14 41 18 19 2 -9 -1 -22 -7 -28z m-2751 23 c0 -12 -67 -12 -95 0
-14 6 -4 9 38 9 32 1 57 -3 57 -9z m300 6 c0 -9 -30 -14 -35 -6 -4 6 3 10 14
10 12 0 21 -2 21 -4z m-110 -16 c0 -5 -15 -10 -32 -10 -25 0 -29 3 -18 10 20
13 50 13 50 0z m1240 -20 c0 -5 -7 -10 -16 -10 -8 0 -12 5 -9 10 3 6 10 10 16
10 5 0 9 -4 9 -10z m-370 -16 l65 -7 -35 -12 c-20 -7 -39 -9 -44 -4 -6 5 -34
9 -63 9 -47 0 -52 2 -41 15 7 8 22 13 33 11 11 -3 49 -8 85 -12z m-1240 -14
c0 -5 -6 -10 -14 -10 -8 0 -16 -4 -18 -9 -1 -6 -21 -2 -43 9 l-40 18 58 1 c32
1 57 -3 57 -9z m1333 -27 c-7 -2 -19 -2 -25 0 -7 3 -2 5 12 5 14 0 19 -2 13
-5z m141 -18 c-4 -8 -1 -22 6 -30 10 -13 8 -15 -13 -15 -36 0 -93 -25 -74 -33
9 -3 14 -13 13 -21 -3 -22 -16 -32 -16 -13 0 13 -9 17 -34 17 -19 0 -36 5 -38
11 -3 9 -67 29 -137 43 -8 1 -17 8 -19 14 -2 7 -16 12 -30 13 l-27 1 25 8 c45
14 100 12 100 -5 0 -8 5 -15 10 -15 6 0 10 7 10 16 0 14 8 15 53 10 29 -4 64
-2 77 3 14 5 42 10 62 10 29 1 36 -2 32 -14z m-1064 -5 c8 -5 11 -10 5 -10 -5
0 -17 5 -25 10 -8 5 -10 10 -5 10 6 0 17 -5 25 -10z m1305 -1 c12 -19 -5 -23
-22 -6 -16 16 -16 17 -1 17 9 0 20 -5 23 -11z m-938 -15 c-3 -3 -12 -4 -19 -1
-8 3 -5 6 6 6 11 1 17 -2 13 -5z m-547 -39 c16 -8 36 -12 44 -9 9 4 22 2 29
-4 8 -7 18 -6 31 4 22 16 64 18 85 5 11 -7 9 -10 -8 -16 -33 -10 -171 -14
-171 -4 0 4 -7 6 -16 2 -18 -7 -66 16 -58 29 8 12 31 10 64 -7z m2590 1 c0
-16 -18 -31 -27 -22 -8 8 5 36 17 36 5 0 10 -6 10 -14z m-2965 -26 c3 -5 1
-10 -4 -10 -6 0 -11 5 -11 10 0 6 2 10 4 10 3 0 8 -4 11 -10z m3111 -25 c3
-19 4 -42 1 -50 -4 -8 1 -19 11 -24 9 -5 13 -13 8 -18 -5 -4 -11 -2 -13 5 -3
6 -11 12 -19 12 -7 0 -19 9 -26 20 -7 11 -21 20 -30 20 -28 0 -21 33 10 52 41
24 50 22 58 -17z m-2116 15 c0 -5 -5 -10 -11 -10 -5 0 -7 5 -4 10 3 6 8 10 11
10 2 0 4 -4 4 -10z m1945 -20 c0 -22 -5 -25 -42 -28 -33 -2 -43 1 -43 13 0 8
9 15 19 15 10 0 22 7 25 16 9 25 41 13 41 -16z m-1915 10 c0 -5 -4 -10 -10
-10 -5 0 -10 5 -10 10 0 6 5 10 10 10 6 0 10 -4 10 -10z m150 0 c0 -5 -4 -10
-9 -10 -6 0 -13 5 -16 10 -3 6 1 10 9 10 9 0 16 -4 16 -10z m470 -10 c12 -8
11 -10 -7 -10 -12 0 -25 5 -28 10 -8 13 15 13 35 0z m-986 -15 c11 -8 15 -15
10 -15 -6 0 -19 7 -30 15 -10 8 -14 14 -9 14 6 0 19 -6 29 -14z m316 5 c0 -5
-7 -10 -15 -10 -8 0 -15 5 -15 10 0 6 7 10 15 10 8 0 15 -4 15 -10z m295 0 c3
-5 1 -10 -4 -10 -6 0 -11 5 -11 10 0 6 2 10 4 10 3 0 8 -4 11 -10z m225 0 c0
-5 -5 -10 -11 -10 -5 0 -7 5 -4 10 3 6 8 10 11 10 2 0 4 -4 4 -10z m-375 -10
c3 -5 -1 -10 -9 -10 -9 0 -16 5 -16 10 0 6 4 10 9 10 6 0 13 -4 16 -10z m108
4 c9 -9 -19 -34 -39 -34 -16 0 -16 2 2 19 21 22 27 24 37 15z m1381 -19 c3 -9
18 -15 36 -15 34 0 41 -19 10 -27 l-21 -6 21 -14 c28 -20 25 -30 -10 -38 -17
-4 -43 -18 -58 -32 -26 -24 -27 -24 -36 -4 -6 14 -15 19 -27 16 -20 -7 -35 10
-18 20 7 5 3 12 -10 22 -28 19 -26 31 4 39 14 3 29 11 33 18 6 11 48 34 63 35
4 1 9 -6 13 -14z m-1864 -5 c-20 -13 -33 -13 -25 0 3 6 14 10 23 10 15 0 15
-2 2 -10z m202 -2 c-8 -8 -17 -8 -34 0 -22 10 -21 11 12 11 26 1 31 -2 22 -11z
m130 -10 c-7 -7 -12 -8 -12 -2 0 14 12 26 19 19 2 -3 -1 -11 -7 -17z m-32 -18
c0 -5 -4 -10 -10 -10 -5 0 -10 5 -10 10 0 6 5 10 10 10 6 0 10 -4 10 -10z
m120 0 c0 -5 -5 -10 -11 -10 -5 0 -7 5 -4 10 3 6 8 10 11 10 2 0 4 -4 4 -10z
m158 -15 c3 -3 3 -6 1 -8 -94 -71 -106 -77 -132 -64 -15 6 -27 14 -27 17 1 3
22 20 48 38 36 25 54 31 76 27 16 -3 32 -7 34 -10z m1914 -32 c24 -36 46 -109
30 -99 -4 2 -6 -11 -4 -30 2 -19 8 -37 13 -40 5 -3 9 -10 9 -15 0 -6 -4 -7
-10 -4 -5 3 -20 -10 -31 -30 -16 -27 -26 -34 -40 -30 -11 4 -19 2 -19 -4 0 -6
-7 -11 -15 -11 -11 0 -14 7 -9 24 8 32 -10 41 -24 11 -8 -18 -8 -26 4 -35 19
-16 18 -60 -2 -89 -12 -17 -13 -26 -5 -34 18 -18 13 -41 -20 -106 -21 -40 -39
-63 -53 -66 -11 -2 -30 -6 -41 -8 -18 -4 -18 -5 5 -14 l25 -11 -25 -10 c-31
-12 -58 -4 -73 20 -15 25 -84 61 -99 52 -7 -4 -8 -3 -4 4 4 7 1 12 -8 12 -9 0
-16 9 -16 20 0 10 -8 24 -17 29 -16 9 -16 12 -3 20 10 7 17 6 23 -4 15 -27 28
-16 15 13 -14 29 -15 47 -4 74 4 9 3 25 -3 37 -6 11 -11 32 -11 48 0 15 -12
52 -27 81 -30 59 -25 84 17 90 16 3 35 -10 70 -48 47 -51 48 -52 60 -30 9 17
9 25 -4 39 -19 21 -21 68 -3 74 15 5 96 -16 135 -35 26 -14 29 -13 28 0 -1 19
63 35 81 21 17 -15 11 11 -12 46 -18 26 -28 75 -16 75 3 0 19 -12 35 -27 17
-16 25 -21 19 -13 -14 16 -18 54 -5 46 5 -3 20 -22 34 -43z m-2102 27 c0 -5
-7 -10 -16 -10 -8 0 -12 5 -9 10 3 6 10 10 16 10 5 0 9 -4 9 -10z m803 3 c-7
-2 -19 -2 -25 0 -7 3 -2 5 12 5 14 0 19 -2 13 -5z m-1108 -13 c3 -5 1 -10 -4
-10 -6 0 -11 5 -11 10 0 6 2 10 4 10 3 0 8 -4 11 -10z m1048 3 c-7 -2 -19 -2
-25 0 -7 3 -2 5 12 5 14 0 19 -2 13 -5z m-883 -8 c0 -2 -15 -12 -32 -20 l-33
-16 24 21 c22 19 41 26 41 15z m-351 -24 c9 -6 10 -10 2 -16 -16 -9 -44 2 -36
15 8 12 16 12 34 1z m148 3 c-3 -3 -12 -4 -19 -1 -8 3 -5 6 6 6 11 1 17 -2 13
-5z m343 -53 c0 -5 -7 -12 -16 -15 -24 -9 -28 -7 -14 9 14 17 30 20 30 6z
m-460 -21 c0 -5 -2 -10 -4 -10 -3 0 -8 5 -11 10 -3 6 -1 10 4 10 6 0 11 -4 11
-10z m297 -6 c-3 -3 -12 -4 -19 -1 -8 3 -5 6 6 6 11 1 17 -2 13 -5z m223 -19
c0 -9 -9 -15 -22 -15 -21 0 -21 0 -2 15 24 18 24 18 24 0z m125 5 c3 -5 1 -10
-4 -10 -6 0 -11 5 -11 10 0 6 2 10 4 10 3 0 8 -4 11 -10z m-488 -6 c-3 -3 -12
-4 -19 -1 -8 3 -5 6 6 6 11 1 17 -2 13 -5z m1756 -26 c26 -10 32 -25 30 -75
-1 -7 3 -13 9 -13 5 0 6 -5 2 -11 -3 -6 -16 -9 -28 -7 -15 3 -22 -1 -23 -12
-1 -13 5 -16 23 -12 44 8 22 -37 -32 -64 -26 -14 -46 -1 -36 24 5 14 4 15 -10
2 -11 -10 -13 -19 -7 -27 16 -18 -4 -23 -47 -12 -48 13 -62 25 -47 40 12 12 7
39 -8 39 -5 0 -9 -9 -9 -19 0 -34 -16 -31 -34 6 -12 25 -14 38 -6 43 6 4 8 15
4 24 -6 15 -3 17 14 12 11 -4 23 -2 27 4 3 5 1 10 -4 10 -24 0 -9 21 27 38 43
21 115 26 155 10z m-1713 -8 c0 -5 -2 -10 -4 -10 -3 0 -8 5 -11 10 -3 6 -1 10
4 10 6 0 11 -4 11 -10z m400 0 c0 -5 -7 -10 -15 -10 -8 0 -15 5 -15 10 0 6 7
10 15 10 8 0 15 -4 15 -10z m911 -22 c24 4 14 -27 -15 -48 -21 -14 -20 -15 8
-20 16 -3 31 -11 34 -17 8 -26 -49 -9 -85 24 -15 13 -18 27 -4 19 5 -3 9 0 8
7 0 6 1 23 1 36 2 21 4 22 19 10 9 -8 24 -13 34 -11z m-1441 -8 c0 -5 -2 -10
-4 -10 -3 0 -8 5 -11 10 -3 6 -1 10 4 10 6 0 11 -4 11 -10z m482 -12 c-9 -9
-15 -9 -24 0 -9 9 -7 12 12 12 19 0 21 -3 12 -12z m-295 -4 c-3 -3 -12 -4 -19
-1 -8 3 -5 6 6 6 11 1 17 -2 13 -5z m-147 -14 c0 -5 -2 -10 -4 -10 -3 0 -8 5
-11 10 -3 6 -1 10 4 10 6 0 11 -4 11 -10z m1300 0 c0 -5 -4 -10 -10 -10 -5 0
-10 5 -10 10 0 6 5 10 10 10 6 0 10 -4 10 -10z m-1630 -10 c0 -5 -5 -10 -11
-10 -5 0 -7 5 -4 10 3 6 8 10 11 10 2 0 4 -4 4 -10z m357 -22 c-3 -8 -6 -5 -6
6 -1 11 2 17 5 13 3 -3 4 -12 1 -19z m193 2 c0 -5 -4 -10 -10 -10 -5 0 -10 5
-10 10 0 6 5 10 10 10 6 0 10 -4 10 -10z m-533 -22 c-3 -8 -6 -5 -6 6 -1 11 2
17 5 13 3 -3 4 -12 1 -19z m93 2 c0 -5 -4 -10 -10 -10 -5 0 -10 5 -10 10 0 6
5 10 10 10 6 0 10 -4 10 -10z m280 0 c0 -5 -4 -10 -10 -10 -5 0 -10 5 -10 10
0 6 5 10 10 10 6 0 10 -4 10 -10z m347 -12 c-3 -8 -6 -5 -6 6 -1 11 2 17 5 13
3 -3 4 -12 1 -19z m-230 -4 c-3 -3 -12 -4 -19 -1 -8 3 -5 6 6 6 11 1 17 -2 13
-5z m-617 -14 c0 -5 -2 -10 -4 -10 -3 0 -8 5 -11 10 -3 6 -1 10 4 10 6 0 11
-4 11 -10z m455 0 c3 -5 -3 -10 -14 -10 -12 0 -21 5 -21 10 0 6 6 10 14 10 8
0 18 -4 21 -10z m-66 -33 c12 -15 12 -17 -3 -11 -9 3 -16 13 -16 22 0 8 1 13
3 11 1 -2 9 -12 16 -22z m188 17 c-3 -3 -12 -4 -19 -1 -8 3 -5 6 6 6 11 1 17
-2 13 -5z m-427 -34 c0 -5 -2 -10 -4 -10 -3 0 -8 5 -11 10 -3 6 -1 10 4 10 6
0 11 -4 11 -10z m85 0 c3 -5 1 -10 -4 -10 -6 0 -11 5 -11 10 0 6 2 10 4 10 3
0 8 -4 11 -10z m119 -29 c-7 -9 -34 10 -34 24 0 13 3 12 18 -2 10 -10 17 -20
16 -22z m166 29 c0 -5 -2 -10 -4 -10 -3 0 -8 5 -11 10 -3 6 -1 10 4 10 6 0 11
-4 11 -10z m-460 -20 c0 -5 -4 -10 -10 -10 -5 0 -10 5 -10 10 0 6 5 10 10 10
6 0 10 -4 10 -10z m140 -16 c0 -9 -5 -14 -12 -12 -18 6 -21 28 -4 28 9 0 16
-7 16 -16z m-334 -6 c4 -6 3 -8 -4 -4 -6 3 -13 2 -17 -4 -10 -16 -35 -12 -29
5 7 18 40 20 50 3z m439 -26 c-9 -9 -35 8 -35 23 0 13 3 12 20 -2 11 -9 17
-19 15 -21z m-252 21 c-7 -2 -21 -2 -30 0 -10 3 -4 5 12 5 17 0 24 -2 18 -5z
m44 -15 c-3 -8 -6 -5 -6 6 -1 11 2 17 5 13 3 -3 4 -12 1 -19z m290 0 c-3 -8
-6 -5 -6 6 -1 11 2 17 5 13 3 -3 4 -12 1 -19z m-237 -8 c0 -5 -9 -10 -21 -10
-11 0 -17 5 -14 10 3 6 13 10 21 10 8 0 14 -4 14 -10z m100 -35 c0 -12 -20 6
-31 28 l-11 22 21 -22 c11 -12 21 -25 21 -28z m175 35 c3 -5 -1 -10 -9 -10 -9
0 -16 5 -16 10 0 6 4 10 9 10 6 0 13 -4 16 -10z m-440 -10 c19 -8 19 -9 -2 -9
-12 -1 -25 4 -28 9 -7 12 2 12 30 0z m182 -32 c-3 -8 -6 -5 -6 6 -1 11 2 17 5
13 3 -3 4 -12 1 -19z m1478 12 c3 -5 1 -10 -4 -10 -6 0 -11 5 -11 10 0 6 2 10
4 10 3 0 8 -4 11 -10z m-1574 -33 c-9 -9 -14 -8 -21 3 -16 24 -11 31 11 19 16
-8 18 -14 10 -22z m304 23 c3 -5 2 -10 -4 -10 -5 0 -13 5 -16 10 -3 6 -2 10 4
10 5 0 13 -4 16 -10z m89 -6 c3 -8 2 -12 -4 -9 -6 3 -10 10 -10 16 0 14 7 11
14 -7z m134 -9 c-3 -3 -9 2 -12 12 -6 14 -5 15 5 6 7 -7 10 -15 7 -18z m-488
5 c0 -5 -4 -10 -10 -10 -5 0 -10 5 -10 10 0 6 5 10 10 10 6 0 10 -4 10 -10z
m-123 -22 c-3 -8 -6 -5 -6 6 -1 11 2 17 5 13 3 -3 4 -12 1 -19z m301 -3 c-3
-3 -9 2 -12 12 -6 14 -5 15 5 6 7 -7 10 -15 7 -18z m232 21 c0 -3 -4 -8 -10
-11 -5 -3 -10 -1 -10 4 0 6 5 11 10 11 6 0 10 -2 10 -4z m-113 -28 c-3 -8 -6
-5 -6 6 -1 11 2 17 5 13 3 -3 4 -12 1 -19z m-320 -30 c-3 -7 -5 -2 -5 12 0 14
2 19 5 13 2 -7 2 -19 0 -25z m97 23 c7 -11 -14 -20 -31 -13 -7 2 -10 8 -7 13
7 12 31 12 38 0z m876 -1 c0 -5 -2 -10 -4 -10 -3 0 -8 5 -11 10 -3 6 -1 10 4
10 6 0 11 -4 11 -10z m315 0 c4 -6 -5 -10 -19 -10 -14 0 -26 5 -26 10 0 6 9
10 19 10 11 0 23 -4 26 -10z m-917 -11 c-2 -6 -8 -10 -13 -10 -5 0 -11 4 -13
10 -2 6 4 11 13 11 9 0 15 -5 13 -11z m1027 -5 c16 -13 17 -15 3 -12 -25 5
-22 -16 3 -22 34 -8 34 -27 -1 -28 -20 0 -30 4 -30 14 0 8 -5 14 -11 14 -5 0
-7 5 -3 12 4 6 -1 17 -11 25 -18 12 -17 13 6 13 13 0 33 -8 44 -16z m-1476
-29 c39 -16 70 -30 68 -31 -3 -3 -203 52 -222 61 -5 3 11 3 36 1 26 -2 79 -16
118 -31z m281 15 c0 -14 -24 -23 -47 -17 -15 3 -14 6 7 15 32 14 40 14 40 2z
m1130 0 c8 -5 11 -10 5 -10 -5 0 -17 5 -25 10 -8 5 -10 10 -5 10 6 0 17 -5 25
-10z m120 0 c0 -5 -8 -10 -17 -10 -15 0 -16 2 -3 10 19 12 20 12 20 0z m-1353
-32 c-3 -7 -5 -2 -5 12 0 14 2 19 5 13 2 -7 2 -19 0 -25z m193 -8 c0 -5 -4
-10 -10 -10 -5 0 -10 5 -10 10 0 6 5 10 10 10 6 0 10 -4 10 -10z m1780 -5 c7
-9 21 -13 35 -9 30 7 44 -15 20 -33 -18 -13 -18 -13 1 -28 10 -8 27 -15 37
-15 9 0 17 -4 17 -10 0 -9 -34 -15 -72 -12 -11 1 -15 -3 -12 -13 9 -23 -32
-19 -49 5 -12 18 -15 18 -20 5 -8 -18 -57 -20 -57 -2 0 7 9 23 20 34 17 19 17
22 3 27 -23 9 -5 21 40 25 5 1 5 6 2 11 -7 11 2 30 14 30 5 0 14 -7 21 -15z
m-2460 -5 c11 -7 9 -11 -13 -19 -36 -14 -34 -14 -40 9 -4 15 0 20 16 20 12 0
29 -4 37 -10z m564 -37 l31 -14 -40 6 c-76 11 -95 17 -89 26 7 12 53 3 98 -18z
m1101 17 c3 -5 1 -10 -4 -10 -6 0 -11 5 -11 10 0 6 2 10 4 10 3 0 8 -4 11 -10z
m-967 -25 c-3 -3 -9 2 -12 12 -6 14 -5 15 5 6 7 -7 10 -15 7 -18z m947 -5 c-3
-5 -12 -10 -18 -10 -7 0 -6 4 3 10 19 12 23 12 15 0z m-1485 -24 c37 -5 37 -6
9 -21 -32 -17 -83 -6 -87 20 -3 15 0 17 25 11 15 -4 39 -9 53 -10z m1589 -44
c-19 -38 -49 -67 -49 -48 0 7 6 16 14 19 8 3 20 23 27 44 7 21 14 32 17 25 2
-8 -2 -26 -9 -40z m121 34 c0 -3 -4 -8 -10 -11 -5 -3 -10 -1 -10 4 0 6 5 11
10 11 6 0 10 -2 10 -4z m-1840 -25 c7 -14 7 -22 -2 -27 -7 -4 -8 -3 -4 5 4 6
0 14 -8 17 -17 7 -22 24 -6 24 5 0 14 -9 20 -19z m130 -21 c0 -5 -2 -10 -4
-10 -3 0 -8 5 -11 10 -3 6 -1 10 4 10 6 0 11 -4 11 -10z m2730 -10 c6 -11 7
-20 2 -20 -6 0 -12 9 -15 20 -3 11 -3 20 -1 20 2 0 8 -9 14 -20z m-2170 -10
c6 -11 7 -20 3 -20 -5 0 -14 9 -21 20 -7 11 -8 20 -2 20 5 0 14 -9 20 -20z
m1090 16 c0 -3 -4 -8 -10 -11 -5 -3 -10 -1 -10 4 0 6 5 11 10 11 6 0 10 -2 10
-4z m-1807 -13 c-7 -2 -19 -2 -25 0 -7 3 -2 5 12 5 14 0 19 -2 13 -5z m309 -2
c-12 -7 -62 -4 -62 5 0 2 17 4 38 4 23 0 32 -3 24 -9z m218 -33 c0 -5 -7 -3
-15 6 -8 8 -15 18 -15 22 0 3 7 1 15 -6 8 -7 15 -17 15 -22z m294 24 c3 -5 -1
-9 -9 -9 -8 0 -12 4 -9 9 3 4 7 8 9 8 2 0 6 -4 9 -8z m85 2 c33 -7 44 -34 14
-34 -20 0 -75 39 -57 40 6 0 26 -3 43 -6z m-459 -28 c0 -2 -7 -6 -15 -10 -8
-3 -15 -1 -15 4 0 6 7 10 15 10 8 0 15 -2 15 -4z m117 -12 c-3 -3 -12 -4 -19
-1 -8 3 -5 6 6 6 11 1 17 -2 13 -5z m1033 -4 c0 -5 -5 -10 -11 -10 -5 0 -7 5
-4 10 3 6 8 10 11 10 2 0 4 -4 4 -10z"/>
<path d="M2706 1635 c-3 -9 -6 -24 -6 -33 0 -13 4 -11 16 7 11 15 13 26 6 33
-6 6 -12 4 -16 -7z"/>
<path d="M2422 1535 c2 -12 12 -21 27 -23 16 -3 22 0 18 10 -2 7 -10 12 -17
10 -7 -2 -17 3 -22 10 -7 9 -8 7 -6 -7z"/>
<path d="M2750 1470 c0 -23 17 -25 43 -6 16 12 16 14 1 20 -29 11 -44 6 -44
-14z"/>
<path d="M1216 1184 c-10 -14 -12 -24 -6 -24 7 0 5 -7 -4 -15 -8 -8 -19 -15
-25 -15 -6 0 -11 -7 -11 -16 0 -10 6 -14 14 -11 7 3 19 0 25 -6 8 -8 21 -1 51
28 22 21 40 42 40 45 0 4 -15 14 -34 23 -34 16 -35 15 -50 -9z"/>
<path d="M1075 1169 c-9 -14 -2 -20 14 -10 8 6 9 11 3 15 -6 3 -14 1 -17 -5z"/>
<path d="M1080 1100 c0 -6 7 -10 15 -10 8 0 15 2 15 4 0 2 -7 6 -15 10 -8 3
-15 1 -15 -4z"/>
<path d="M961 1081 c-30 -8 -39 -29 -16 -37 9 -4 21 0 28 10 13 18 41 23 72
12 20 -8 20 -7 1 8 -21 17 -44 19 -85 7z"/>
<path d="M625 1070 c3 -5 11 -10 16 -10 6 0 7 5 4 10 -3 6 -11 10 -16 10 -6 0
-7 -4 -4 -10z"/>
<path d="M1505 960 c3 -5 8 -10 11 -10 2 0 4 5 4 10 0 6 -5 10 -11 10 -5 0 -7
-4 -4 -10z"/>
<path d="M3160 690 c-18 -12 -2 -12 25 0 13 6 15 9 5 9 -8 0 -22 -4 -30 -9z"/>
<path d="M2910 368 c0 -16 5 -28 11 -28 6 0 10 -10 9 -22 -4 -43 0 -58 14 -58
15 0 26 21 26 49 0 9 -13 32 -30 51 l-29 35 -1 -27z"/>
<path d="M330 1030 c0 -5 7 -10 15 -10 8 0 15 5 15 10 0 6 -7 10 -15 10 -8 0
-15 -4 -15 -10z"/>
<path d="M1755 860 c-3 -5 1 -10 9 -10 8 0 18 5 21 10 3 6 -1 10 -9 10 -8 0
-18 -4 -21 -10z"/>
<path d="M1803 790 c9 -6 17 -19 17 -28 0 -13 2 -14 9 -3 6 9 19 11 42 7 l34
-6 -31 15 c-17 7 -44 17 -60 20 -24 5 -26 4 -11 -5z"/>
<path d="M1895 710 c-4 -6 5 -10 20 -10 15 0 24 4 20 10 -3 6 -12 10 -20 10
-8 0 -17 -4 -20 -10z"/>
<path d="M1816 699 c3 -6 0 -15 -7 -20 -9 -6 5 -8 38 -5 56 3 63 -10 18 -34
-20 -11 -27 -11 -42 1 -16 12 -17 12 -6 -2 7 -9 10 -19 7 -22 -14 -14 7 -27
27 -17 11 6 17 15 14 20 -3 5 3 14 14 20 12 6 26 20 32 32 11 20 10 21 -30 14
-32 -5 -43 -3 -47 9 -4 8 -10 15 -16 15 -5 0 -6 -5 -2 -11z"/>
<path d="M1710 680 c0 -5 5 -10 10 -10 6 0 10 5 10 10 0 6 -4 10 -10 10 -5 0
-10 -4 -10 -10z"/>
<path d="M1758 633 c12 -2 22 -8 22 -13 0 -12 -54 -20 -64 -9 -15 14 -36 11
-36 -6 0 -8 11 -17 25 -21 14 -3 25 -12 25 -20 0 -8 5 -14 10 -14 6 0 10 4 10
10 0 5 13 16 29 22 24 11 28 16 20 36 -6 16 -16 22 -36 21 -24 -2 -25 -2 -5
-6z"/>
<path d="M1648 593 c7 -3 16 -2 19 1 4 3 -2 6 -13 5 -11 0 -14 -3 -6 -6z"/>
<path d="M1647 553 c-3 -5 3 -14 13 -20 15 -10 18 -9 16 4 -3 19 -21 29 -29
16z"/>
<path d="M1835 520 c3 -5 13 -10 21 -10 8 0 14 5 14 10 0 6 -9 10 -21 10 -11
0 -17 -4 -14 -10z"/>
<path d="M1735 510 c-4 -6 -3 -14 0 -20 3 -5 -3 -10 -14 -10 -12 0 -21 7 -21
15 0 20 -50 20 -98 -1 -20 -9 -48 -16 -61 -15 -22 1 -40 -13 -41 -31 0 -3 25
-6 56 -5 47 1 55 4 51 18 -5 18 29 39 61 39 14 0 15 -2 2 -10 -8 -5 -12 -11
-10 -14 9 -8 75 -10 87 -3 17 11 44 -3 41 -21 -2 -9 5 -18 17 -20 17 -4 18 -2
6 11 -15 19 -7 37 17 38 11 0 9 3 -7 10 -14 5 -31 7 -38 5 -7 -3 -13 -1 -13 3
0 13 -28 22 -35 11z"/>
<path d="M1620 419 c0 -5 5 -7 10 -4 6 3 10 8 10 11 0 2 -4 4 -10 4 -5 0 -10
-5 -10 -11z"/>
<path d="M1865 420 c27 -12 43 -12 25 0 -8 5 -22 9 -30 9 -10 0 -8 -3 5 -9z"/>
<path d="M1530 412 c0 -12 19 -26 26 -19 2 2 -2 10 -11 17 -9 8 -15 8 -15 2z"/>
<path d="M1901 389 c-10 -22 -16 -28 -24 -20 -15 15 -37 14 -37 -1 0 -15 49
-40 61 -32 5 3 9 13 9 24 0 11 10 20 25 24 14 4 25 11 25 17 0 6 -4 8 -9 4 -5
-3 -12 -1 -16 5 -10 17 -20 11 -34 -21z"/>
<path d="M1828 403 c6 -2 18 -2 25 0 6 3 1 5 -13 5 -14 0 -19 -2 -12 -5z"/>
<path d="M1610 390 l-25 -6 28 -18 c31 -21 36 -20 28 10 -5 16 -11 19 -31 14z"/>
<path d="M1276 244 c-23 -22 -10 -37 14 -16 11 9 20 20 20 24 0 13 -18 9 -34
-8z"/>
<path d="M1553 253 c9 -2 23 -2 30 0 6 3 -1 5 -18 5 -16 0 -22 -2 -12 -5z"/>
<path d="M1356 215 c-4 -11 2 -15 19 -15 30 0 32 6 6 19 -14 8 -20 7 -25 -4z"/>
<path d="M1288 183 c17 -9 32 -20 32 -25 0 -4 18 -8 40 -8 23 0 40 5 40 11 0
7 -9 9 -21 6 -12 -3 -28 0 -36 8 -7 8 -21 11 -30 8 -11 -4 -14 -3 -9 5 5 8 -2
12 -21 11 l-28 0 33 -16z"/>
<path d="M1265 130 c-3 -5 -2 -10 4 -10 5 0 13 5 16 10 3 6 2 10 -4 10 -5 0
-13 -4 -16 -10z"/>
<path d="M1408 43 c7 -3 16 -2 19 1 4 3 -2 6 -13 5 -11 0 -14 -3 -6 -6z"/>
<path d="M1060 33 c1 -18 18 -35 24 -24 4 6 4 16 1 21 -7 12 -25 13 -25 3z"/>
<path d="M1130 30 c0 -5 5 -10 11 -10 5 0 7 5 4 10 -3 6 -8 10 -11 10 -2 0 -4
-4 -4 -10z"/>
<path d="M2045 30 c-8 -13 4 -32 16 -24 5 3 7 9 4 14 -3 5 3 11 12 13 14 4 13
5 -4 6 -12 0 -25 -3 -28 -9z"/>
</g>
</svg>
